<svg width="48" height="34" viewBox="0 0 48 34" fill="none" xmlns="http://www.w3.org/2000/svg">
<g clip-path="url(#clip0_12_283)">
<path d="M11.7568 0.977028C9.7714 -0.244771 9.40233 1.35884 9.46596 2.31337V12.2405L18.2477 5.74968L11.7568 0.977028Z" fill="#E63946"/>
<path d="M6.22051 2.69519L1.25699 6.32243C-0.461124 7.65876 0.302503 9.7587 2.21154 9.56781H6.02962L6.22051 2.69519Z" fill="#4C39C3"/>
<path d="M36.5747 30.5675L45.9291 24.0767C48.6017 22.3586 48.4108 20.0859 44.2109 20.2768H36.9441L36.5747 30.5675Z" fill="#1D3557"/>
<path d="M31.2293 0.595316L9.84777 15.6769C8.39618 16.7008 9.24291 17.6308 9.84777 17.9678L30.2747 32.6675C32.871 33.8893 33.5201 32.2857 33.5201 31.3312V1.54984C33.3674 -0.435578 31.9292 0.086232 31.2293 0.595316Z" fill="#7650E0"/>
</g>
<defs>
<clipPath id="clip0_12_283">
<rect width="48" height="33.3659" fill="white"/>
</clipPath>
</defs>
</svg>
