<svg width="25" height="25" viewBox="0 0 25 25" fill="none" xmlns="http://www.w3.org/2000/svg">
<path d="M19.7917 7.29163H5.20833C4.05774 7.29163 3.125 8.22437 3.125 9.37496V18.75C3.125 19.9006 4.05774 20.8333 5.20833 20.8333H19.7917C20.9423 20.8333 21.875 19.9006 21.875 18.75V9.37496C21.875 8.22437 20.9423 7.29163 19.7917 7.29163Z" fill="white" stroke="white" stroke-width="1.5625" stroke-linecap="round" stroke-linejoin="round"/>
<path d="M8.33331 7.29167V5.20833C8.33331 4.6558 8.55281 4.12589 8.94351 3.73519C9.33421 3.34449 9.86411 3.125 10.4166 3.125H14.5833C15.1358 3.125 15.6658 3.34449 16.0565 3.73519C16.4472 4.12589 16.6666 4.6558 16.6666 5.20833V7.29167" stroke="white" stroke-width="1.5625" stroke-linecap="round" stroke-linejoin="round"/>
<path d="M12.5 12.5V12.5103" stroke="#7650E0" stroke-width="1.5625" stroke-linecap="round" stroke-linejoin="round"/>
<path d="M2 14C5.25684 15.315 8.85303 16 12.5 16C16.147 16 19.7432 15.315 23 14" stroke="#7650E0" stroke-width="1.5625" stroke-linecap="round" stroke-linejoin="round"/>
</svg>
