<svg width="340" height="258" viewBox="0 0 340 258" fill="none" xmlns="http://www.w3.org/2000/svg">
<path d="M144.704 222.661C186.508 222.661 220.396 219.895 220.396 216.482C220.396 213.069 186.508 210.302 144.704 210.302C102.9 210.302 69.0115 213.069 69.0115 216.482C69.0115 219.895 102.9 222.661 144.704 222.661Z" fill="#E6E7E8"/>
<path d="M270.988 158.469H217.167V202.321H270.988V158.469Z" fill="white"/>
<path d="M270.989 202.754H217.167C217.054 202.754 216.946 202.71 216.866 202.63C216.786 202.55 216.742 202.442 216.742 202.329V158.469C216.742 158.357 216.786 158.249 216.866 158.169C216.946 158.089 217.054 158.044 217.167 158.044H270.989C271.101 158.047 271.207 158.092 271.287 158.171C271.366 158.251 271.411 158.357 271.414 158.469V202.329C271.411 202.441 271.366 202.548 271.287 202.628C271.207 202.707 271.101 202.752 270.989 202.754ZM217.592 201.904H270.564V158.894H217.6L217.592 201.904Z" fill="#D1D3D4"/>
<path d="M270.989 164.53H217.167C217.054 164.53 216.946 164.485 216.866 164.405C216.786 164.326 216.742 164.218 216.742 164.105C216.742 163.992 216.786 163.884 216.866 163.804C216.946 163.725 217.054 163.68 217.167 163.68H270.989C271.101 163.68 271.209 163.725 271.289 163.804C271.369 163.884 271.414 163.992 271.414 164.105C271.411 164.217 271.366 164.324 271.287 164.403C271.207 164.482 271.101 164.528 270.989 164.53Z" fill="#D1D3D4"/>
<path d="M122.689 76.538C121.528 76.616 120.37 76.352 119.358 75.7787C118.345 75.2053 117.523 74.3478 116.993 73.3121C116.463 72.2765 116.248 71.1081 116.375 69.9517C116.502 68.7952 116.966 67.7014 117.708 66.8055C114.461 65.3095 112.744 61.4675 112.982 57.906C113.22 54.3445 115.098 51.106 117.444 48.369C119.374 46.1335 121.796 44.119 124.695 43.5665C125.244 43.5118 125.779 43.3623 126.276 43.1245C126.667 42.8491 127.007 42.5067 127.279 42.113C129.395 39.41 132.005 36.928 135.269 35.84C138.533 34.752 142.528 35.3725 144.712 38.033C145.804 37.085 147.158 36.4909 148.595 36.3294C150.032 36.1678 151.485 36.4464 152.76 37.1282C154.035 37.81 155.073 38.863 155.737 40.1477C156.4 41.4325 156.658 42.8884 156.476 44.323C158.776 44.6625 160.932 45.6467 162.696 47.1617C164.459 48.6766 165.757 50.6602 166.438 52.8825C167.654 57.3535 165.588 62.6065 161.466 64.723C160.99 64.9695 160.42 65.2925 160.437 65.8195C160.484 66.1375 160.627 66.4339 160.845 66.6695C162.171 68.565 161.508 71.3105 159.995 73.0275C158.482 74.7445 156.221 75.654 154.045 76.521C154.53 77.0063 154.852 77.6291 154.969 78.3045C155.086 78.9799 154.992 79.675 154.7 80.295C154.069 81.5361 153.088 82.5647 151.878 83.253C147.152 86.3045 141.304 85.3525 136.008 85.463C131.121 85.565 126.267 82.4455 123.029 78.9095C122.4 78.238 121.898 77.014 122.689 76.538Z" fill="white"/>
<path d="M141.865 85.9475C141.015 85.9475 140.165 85.9475 139.383 85.9475C138.278 85.9475 137.122 85.8965 136.034 85.9475C131.597 86.024 126.684 83.5335 122.723 79.258C122.444 78.9785 122.225 78.6452 122.079 78.2785C121.933 77.9117 121.863 77.5192 121.873 77.1245C121.868 77.0935 121.868 77.062 121.873 77.031C120.729 76.976 119.621 76.612 118.666 75.9777C117.712 75.3434 116.948 74.4624 116.455 73.4284C115.961 72.3944 115.757 71.246 115.864 70.1054C115.971 68.9647 116.385 67.8742 117.062 66.95C114.13 65.335 112.302 61.6885 112.557 57.8805C112.77 54.625 114.308 51.3355 117.122 48.0885C119.57 45.2665 122.018 43.6515 124.619 43.15L124.908 43.099C125.316 43.0829 125.715 42.9639 126.065 42.7529C126.416 42.5419 126.708 42.2458 126.914 41.892C129.583 38.492 132.26 36.401 135.133 35.4405C138.678 34.259 142.562 35.0835 144.764 37.438C145.922 36.5435 147.315 36.0039 148.774 35.8845C150.233 35.7651 151.695 36.071 152.984 36.7653C154.272 37.4595 155.332 38.5123 156.035 39.7963C156.738 41.0802 157.054 42.5404 156.944 44C159.241 44.4151 161.379 45.4525 163.127 46.9993C164.875 48.546 166.164 50.5428 166.855 52.772C168.147 57.5235 165.861 62.972 161.662 65.1055C161.237 65.318 160.854 65.556 160.863 65.811C160.905 65.9874 160.989 66.1508 161.109 66.287L161.186 66.3975C162.699 68.5395 161.84 71.54 160.268 73.274C158.712 74.8007 156.836 75.9621 154.777 76.674C155.149 77.231 155.374 77.8732 155.43 78.5406C155.486 79.2081 155.373 79.8789 155.1 80.4905C154.449 81.8009 153.422 82.8872 152.15 83.61C148.997 85.65 145.427 85.9475 141.865 85.9475ZM136.978 85.0295C137.785 85.0295 138.601 85.0295 139.4 85.0295C143.65 85.1145 148.028 85.208 151.657 82.862C152.801 82.2248 153.727 81.2597 154.318 80.091C154.581 79.5495 154.67 78.9394 154.571 78.3453C154.472 77.7512 154.19 77.2027 153.765 76.776C153.709 76.7287 153.667 76.6679 153.642 76.5994C153.616 76.531 153.609 76.4571 153.621 76.385C153.632 76.3118 153.663 76.2429 153.709 76.1849C153.755 76.1269 153.815 76.0816 153.884 76.0535C155.873 75.2545 158.134 74.3535 159.639 72.6535C160.99 71.166 161.747 68.616 160.489 66.831L160.412 66.7375C160.18 66.4703 160.038 66.1376 160.004 65.7855C160.004 64.9355 160.812 64.5275 161.262 64.298C165.121 62.309 167.212 57.328 166.022 52.942C165.35 50.8104 164.09 48.9113 162.389 47.4621C160.687 46.0129 158.612 45.0723 156.4 44.748C156.29 44.7312 156.191 44.6719 156.124 44.5829C156.058 44.4939 156.028 44.3823 156.043 44.272C156.21 42.9255 155.966 41.5599 155.344 40.3543C154.721 39.1488 153.749 38.1595 152.554 37.5162C151.359 36.8729 149.998 36.6057 148.649 36.7495C147.3 36.8933 146.025 37.4414 144.993 38.322C144.95 38.3596 144.9 38.388 144.846 38.4056C144.792 38.4231 144.735 38.4294 144.679 38.424C144.622 38.4198 144.568 38.4041 144.518 38.3777C144.468 38.3514 144.425 38.3151 144.39 38.271C142.477 35.942 138.78 35.092 135.414 36.2225C132.702 37.1235 130.152 39.1295 127.619 42.351C127.319 42.7871 126.942 43.1644 126.506 43.4645C126.057 43.7034 125.566 43.8535 125.061 43.9065L124.789 43.9575C122.383 44.425 120.088 45.9465 117.768 48.6155C115.082 51.718 113.62 54.846 113.416 57.906C113.169 61.578 115.005 65.063 117.895 66.406C117.954 66.4333 118.006 66.4735 118.047 66.5235C118.088 66.5735 118.117 66.6321 118.133 66.695C118.147 66.759 118.145 66.8253 118.129 66.8887C118.113 66.9521 118.082 67.0109 118.04 67.0605C117.339 67.8888 116.898 68.906 116.774 69.9839C116.65 71.0619 116.848 72.1525 117.342 73.1184C117.836 74.0844 118.605 74.8825 119.552 75.4123C120.499 75.9422 121.582 76.18 122.664 76.096C122.76 76.0861 122.858 76.1105 122.938 76.1648C123.019 76.2192 123.078 76.3001 123.106 76.3935C123.134 76.4847 123.132 76.583 123.098 76.6725C123.064 76.762 123.001 76.8374 122.919 76.8865C122.866 76.9156 122.822 76.9572 122.789 77.0076C122.756 77.058 122.737 77.1157 122.732 77.1755C122.746 77.718 122.972 78.2334 123.361 78.612C127.118 82.709 131.861 85.106 136.017 85.021L136.978 85.0295Z" fill="#231F20"/>
<path d="M183.396 201.021C185.342 201.021 199.852 202.593 206.643 205.968C213.435 209.342 214.905 209.606 213.528 214.162C212.151 218.718 200.192 219.84 191.088 218.123C185.225 216.917 179.57 214.861 174.301 212.02L183.396 201.021Z" fill="white"/>
<path d="M199.674 219.338C196.769 219.327 193.872 219.042 191.02 218.488C185.117 217.273 179.422 215.206 174.114 212.351C174.065 212.321 174.022 212.282 173.988 212.235C173.955 212.188 173.931 212.135 173.919 212.079C173.909 212.024 173.911 211.967 173.926 211.912C173.941 211.858 173.967 211.808 174.004 211.765L183.099 200.766C183.132 200.72 183.175 200.684 183.226 200.659C183.276 200.634 183.331 200.621 183.388 200.621H183.473C185.844 200.621 200.014 202.236 206.813 205.611L208.344 206.367C213.792 209.036 215.262 209.767 213.902 214.272C213.044 217.128 207.451 219.338 199.674 219.338ZM174.905 211.901C180.023 214.603 185.497 216.569 191.165 217.74C200.302 219.44 211.896 218.233 213.163 214.051C214.327 210.175 213.486 209.759 208.004 207.073L206.474 206.316C199.988 203.095 186.116 201.454 183.575 201.403L174.905 211.901Z" fill="#231F20"/>
<path d="M185.343 200.978C186.626 201.292 187.743 202.08 188.47 203.184C189.196 204.287 189.479 205.625 189.261 206.928C188.624 211.765 178.398 211.969 177.812 212.028C177.225 212.088 185.343 200.978 185.343 200.978Z" fill="white"/>
<path d="M177.811 212.3C177.736 212.298 177.661 212.276 177.596 212.238C177.531 212.199 177.476 212.144 177.437 212.079C177.31 211.824 177.106 211.433 185.028 200.714C185.073 200.652 185.137 200.605 185.21 200.579C185.282 200.553 185.361 200.55 185.436 200.57C185.478 200.57 190.323 201.785 189.686 206.911C189.04 211.832 179.724 212.266 177.862 212.3H177.811ZM185.461 201.394C182.971 204.794 179.265 209.894 178.338 211.509C180.667 211.399 188.326 210.744 188.844 206.809C189.044 205.657 188.813 204.473 188.196 203.48C187.578 202.488 186.617 201.758 185.495 201.428L185.461 201.394Z" fill="#231F20"/>
<path d="M109.556 212.054C109.259 212.207 106.479 215.819 94.3584 217.264C82.2374 218.709 77.7409 221.318 75.0379 214.952C72.3349 208.585 74.1879 204.471 80.1379 202.652C86.0879 200.833 102.569 199.329 105.799 202.372C109.029 205.415 109.556 212.054 109.556 212.054Z" fill="white"/>
<path d="M81.022 219.423C78.0215 219.423 76.092 218.42 74.681 215.105C73.27 211.79 73.0575 208.942 74.086 206.741C75.038 204.701 77.044 203.196 80.036 202.287C85.629 200.587 102.621 198.836 106.072 202.091C109.378 205.202 109.905 211.747 109.931 212.019C109.934 212.091 109.919 212.163 109.886 212.227C109.853 212.292 109.804 212.346 109.744 212.385L109.625 212.487C106.131 215.666 99.4245 217.051 94.3925 217.646C91.783 217.961 89.539 218.326 87.5925 218.649C85.4244 219.069 83.2283 219.328 81.022 219.423ZM96.713 201.012C90.8905 201.012 83.8355 201.938 80.2825 203.026C77.4945 203.876 75.6415 205.236 74.7915 207.072C73.8565 209.061 74.0605 211.662 75.395 214.799C77.3925 219.516 80.342 219.049 87.448 217.884C89.437 217.561 91.698 217.196 94.316 216.881C99.229 216.295 105.783 214.952 109.123 211.909C109.004 210.795 108.273 205.296 105.528 202.678C104.304 201.471 100.81 201.012 96.713 201.012Z" fill="#231F20"/>
<path d="M113.424 209.453C113.424 209.453 107.924 214.043 104.261 213.499C100.597 212.955 95.5315 210.949 97.5715 206.996C99.6115 203.044 112.744 200.664 112.744 200.664L113.424 209.453Z" fill="white"/>
<path d="M104.89 213.932C104.66 213.932 104.429 213.915 104.201 213.881C101.456 213.473 98.141 212.3 97.0785 210.218C96.8162 209.684 96.6919 209.093 96.7172 208.499C96.7424 207.905 96.9163 207.327 97.223 206.818C99.331 202.721 112.132 200.383 112.676 200.281C112.73 200.272 112.784 200.274 112.837 200.287C112.89 200.3 112.939 200.324 112.982 200.358C113.025 200.392 113.061 200.434 113.087 200.482C113.113 200.53 113.13 200.583 113.135 200.638L113.815 209.419C113.82 209.481 113.81 209.543 113.786 209.6C113.763 209.658 113.726 209.709 113.679 209.75C113.458 209.929 108.621 213.932 104.89 213.932ZM112.395 201.131C110.143 201.573 99.6455 203.809 97.9455 207.175C97.6947 207.574 97.5492 208.031 97.5224 208.502C97.4957 208.973 97.5886 209.443 97.7925 209.869C98.7275 211.68 101.787 212.734 104.346 213.116C107.465 213.584 112.149 209.997 113.05 209.283L112.395 201.131Z" fill="#231F20"/>
<path d="M179.486 170.897C179.486 170.897 173.689 193.507 152.533 197.825C131.376 202.143 120.428 201.004 112.931 186.724C105.434 172.444 110.381 163.706 110.381 163.706L177.149 162.38L179.486 170.897Z" fill="#231F20"/>
<path d="M135.082 200.468C124.882 200.468 117.801 196.915 112.548 186.919C105.034 172.597 109.82 163.859 109.998 163.493C110.036 163.429 110.089 163.375 110.153 163.338C110.217 163.301 110.29 163.281 110.364 163.281L177.131 161.955C177.228 161.95 177.323 161.978 177.4 162.036C177.478 162.093 177.533 162.175 177.556 162.269L179.868 170.769C179.886 170.842 179.886 170.917 179.868 170.99C179.809 171.22 173.765 193.94 152.583 198.233C145.894 199.618 140.105 200.468 135.082 200.468ZM110.661 164.122C109.998 165.525 106.649 173.837 113.305 186.528C120.912 200.978 132.005 201.59 152.405 197.408C172.32 193.345 178.534 172.563 179.001 170.897L176.8 162.813L110.661 164.122Z" fill="#231F20"/>
<path d="M105.4 171.1C105.4 171.1 94.4605 135.741 95.897 113.581C97.3335 91.4215 105.57 90.631 116.807 89.3815C121.796 88.8205 148.376 84.885 158.33 96.598C168.283 108.311 185.801 163.17 185.801 163.17L105.4 171.1Z" fill="#7650E0"/>
<path d="M144.883 89.441L143.183 101.273C143.183 101.273 139.46 107.384 132.005 104.29C124.551 101.196 124.406 95.493 124.406 95.493L127.942 73.631C127.942 73.631 135.805 66.576 139.111 53.095C139.111 53.095 145.699 64.587 155.261 67.171C155.261 67.171 154.624 76.7165 152.915 82.6325C151.215 88.353 145.002 89.373 144.883 89.441Z" fill="white"/>
<path d="M136 105.583C134.554 105.565 133.127 105.259 131.801 104.681C124.151 101.52 123.947 95.748 123.939 95.5015L127.5 73.563C127.517 73.4658 127.565 73.3765 127.636 73.308C127.713 73.24 135.439 66.185 138.686 52.993C138.709 52.912 138.755 52.8393 138.819 52.7836C138.882 52.7279 138.96 52.6914 139.043 52.6785C139.126 52.6668 139.211 52.6799 139.286 52.7162C139.362 52.7525 139.425 52.8103 139.468 52.8825C139.536 53.0015 146.09 64.2555 155.346 66.7545C155.442 66.78 155.526 66.8381 155.583 66.9188C155.64 66.9995 155.668 67.0977 155.661 67.1965C155.661 67.29 154.998 76.861 153.298 82.7515C151.895 87.605 147.348 89.271 145.274 89.781L143.574 101.333C143.566 101.389 143.548 101.443 143.523 101.494C142.685 102.725 141.565 103.739 140.257 104.45C138.948 105.161 137.489 105.549 136 105.583ZM128.35 73.835L124.831 95.561C124.831 95.697 125.086 100.95 132.175 103.9C138.797 106.645 142.375 101.757 142.783 101.12L144.483 89.3815C144.491 89.3171 144.514 89.2555 144.551 89.2022C144.588 89.1489 144.638 89.1054 144.696 89.0755C144.774 89.0301 144.861 89.0011 144.951 88.9905C146.778 88.557 151.181 87.0525 152.49 82.5135C153.986 77.337 154.666 69.245 154.794 67.4855C146.804 65.1395 141.007 56.903 139.273 54.1745C136.043 66.1425 129.268 72.9 128.35 73.835Z" fill="#231F20"/>
<path d="M132.523 73.9624C132.428 72.8566 131.974 71.8121 131.231 70.9874C130.509 70.2466 129.664 69.6368 128.732 69.1854C128.25 68.8868 127.707 68.6982 127.143 68.6329C126.744 68.6368 126.349 68.7147 125.978 68.8624C125.073 69.1511 124.302 69.7541 123.802 70.5624C123.474 71.2482 123.319 72.0042 123.352 72.7639C123.318 73.5861 123.393 74.4091 123.573 75.2119C123.773 76.0136 124.13 76.7673 124.625 77.4288C125.12 78.0904 125.742 78.6465 126.454 79.0645C127.167 79.4825 127.956 79.7541 128.775 79.8632C129.593 79.9723 130.426 79.9168 131.223 79.6999" fill="white"/>
<path d="M129.608 80.3035C128.129 80.3049 126.692 79.8122 125.524 78.9036C124.357 77.9951 123.527 76.7227 123.165 75.2885C122.968 74.4536 122.888 73.5954 122.927 72.7385C122.897 71.9106 123.069 71.0879 123.428 70.3415C123.97 69.4529 124.811 68.7868 125.8 68.463C126.223 68.2986 126.672 68.2122 127.126 68.208C127.756 68.2743 128.363 68.4805 128.902 68.8115C129.874 69.2859 130.757 69.9242 131.512 70.6985C132.318 71.5941 132.81 72.728 132.914 73.9285C132.922 74.0408 132.885 74.1515 132.812 74.2371C132.739 74.3228 132.635 74.3767 132.523 74.3875C132.412 74.3925 132.302 74.355 132.217 74.2824C132.132 74.2099 132.077 74.1077 132.064 73.9965C131.981 72.9851 131.572 72.028 130.9 71.268C130.209 70.5663 129.401 69.991 128.511 69.568C128.087 69.2962 127.608 69.122 127.109 69.058C126.765 69.0609 126.424 69.1301 126.106 69.262C125.303 69.5099 124.612 70.0299 124.151 70.7325C123.862 71.3603 123.728 72.0482 123.76 72.7385C123.719 73.5238 123.791 74.3109 123.972 75.076C124.159 75.8201 124.492 76.5196 124.952 77.1338C125.412 77.748 125.989 78.2647 126.65 78.6538C127.312 79.0429 128.044 79.2967 128.804 79.4005C129.564 79.5042 130.337 79.4558 131.078 79.258C131.187 79.2293 131.302 79.2445 131.399 79.3002C131.496 79.3559 131.567 79.4476 131.597 79.5555C131.611 79.6096 131.614 79.666 131.606 79.7214C131.599 79.7768 131.58 79.8301 131.552 79.8783C131.523 79.9265 131.485 79.9685 131.441 80.0021C131.396 80.0357 131.345 80.0601 131.291 80.074C130.743 80.2254 130.177 80.3026 129.608 80.3035Z" fill="#231F20"/>
<path d="M143.208 70.588C143.208 70.588 146.548 77.1755 145.452 78.119C144.355 79.0625 141.72 78.0255 141.72 78.0255" fill="white"/>
<path d="M144.084 78.9436C143.21 78.9167 142.348 78.7414 141.534 78.4251C141.482 78.4045 141.434 78.3739 141.394 78.3349C141.354 78.296 141.322 78.2496 141.3 78.1982C141.278 78.1469 141.266 78.0917 141.265 78.0359C141.265 77.98 141.275 77.9245 141.296 77.8726C141.339 77.7692 141.421 77.6866 141.524 77.6422C141.627 77.5978 141.743 77.5951 141.848 77.6346C142.469 77.8726 144.398 78.4251 145.138 77.7961C145.588 77.4221 144.466 74.0731 142.8 70.7751C142.774 70.7257 142.758 70.6714 142.753 70.6157C142.749 70.5599 142.755 70.5038 142.773 70.4507C142.79 70.3975 142.818 70.3484 142.855 70.3063C142.892 70.2642 142.937 70.23 142.987 70.2056C143.088 70.1575 143.203 70.15 143.309 70.1848C143.415 70.2197 143.504 70.2941 143.557 70.3926C144.602 72.4666 146.914 77.3966 145.699 78.4421C145.233 78.7881 144.663 78.965 144.084 78.9436Z" fill="#231F20"/>
<path d="M139.058 69.099C139.122 68.313 138.719 67.6386 138.158 67.5929C137.596 67.5471 137.089 68.1472 137.025 68.9333C136.961 69.7193 137.364 70.3937 137.926 70.4394C138.487 70.4852 138.994 69.8851 139.058 69.099Z" fill="#231F20"/>
<path d="M149.589 70.5541C149.648 69.7677 149.24 69.0962 148.678 69.0543C148.116 69.0125 147.613 69.6161 147.555 70.4026C147.496 71.1891 147.904 71.8606 148.466 71.9024C149.028 71.9443 149.53 71.3406 149.589 70.5541Z" fill="#231F20"/>
<path d="M142.341 84.2135C141.041 84.2364 139.755 83.9448 138.592 83.3635C136.561 82.301 135.26 80.2695 134.725 77.3285C134.715 77.2733 134.717 77.2166 134.729 77.1618C134.741 77.107 134.764 77.0552 134.796 77.0094C134.829 76.9636 134.87 76.9246 134.918 76.8948C134.965 76.8649 135.018 76.8448 135.073 76.8355C135.184 76.8179 135.296 76.8434 135.388 76.9067C135.48 76.97 135.544 77.0663 135.566 77.1755C136.042 79.8445 137.198 81.672 138.966 82.607C142.536 84.477 147.56 82.216 147.611 82.1905C147.714 82.1445 147.83 82.1411 147.935 82.1809C148.041 82.2207 148.126 82.3006 148.172 82.403C148.196 82.4537 148.209 82.5086 148.212 82.5645C148.214 82.6205 148.205 82.6763 148.185 82.7287C148.165 82.7811 148.135 82.8289 148.096 82.8693C148.057 82.9098 148.011 82.942 147.959 82.964C146.184 83.7374 144.277 84.1616 142.341 84.2135Z" fill="#231F20"/>
<path d="M144.883 89.441C144.883 89.441 137.233 90.07 133.289 86.959C133.289 86.959 136.646 97.584 143.701 97.55L144.883 89.441Z" fill="#231F20"/>
<path d="M143.65 97.9749C136.391 97.9749 133.008 87.5284 132.863 87.0864C132.838 86.9993 132.841 86.9065 132.872 86.8211C132.902 86.7357 132.959 86.662 133.033 86.6104C133.105 86.5546 133.193 86.5243 133.284 86.5243C133.375 86.5243 133.463 86.5546 133.535 86.6104C137.334 89.5769 144.755 89.0074 144.831 88.9989C144.895 88.9945 144.958 89.0043 145.017 89.0275C145.076 89.0508 145.129 89.087 145.173 89.1335C145.216 89.18 145.248 89.2355 145.267 89.2961C145.286 89.3566 145.291 89.4206 145.282 89.4834L144.1 97.6009C144.082 97.7067 144.027 97.8025 143.944 97.8711C143.862 97.9397 143.757 97.9765 143.65 97.9749ZM134.13 88.0299C135.209 90.6904 138.269 96.8529 143.318 97.1164L144.364 89.8999C142.732 89.9679 137.7 90.0189 134.147 88.0299H134.13Z" fill="#231F20"/>
<path d="M108.384 91.3536C92.684 89.3986 77.945 156.047 86.513 162.38C99.875 172.265 140.658 158.767 140.658 158.767L136.578 141.181C136.578 141.181 107.143 142.583 106.607 136.54C106.072 130.496 123.055 102.166 120.675 98.0346C118.295 93.9036 108.384 91.3536 108.384 91.3536Z" fill="#7650E0"/>
<path d="M163.2 141.673C163.106 141.676 163.015 141.644 162.944 141.582C162.873 141.521 162.828 141.435 162.817 141.342C160.794 127.13 156.357 103.33 154.921 101.936C154.851 101.863 154.812 101.765 154.813 101.664C154.813 101.563 154.852 101.466 154.923 101.393C154.993 101.321 155.089 101.278 155.19 101.275C155.291 101.271 155.39 101.307 155.465 101.375C157.309 103.168 162.052 130.47 163.582 141.231C163.597 141.334 163.57 141.438 163.508 141.521C163.446 141.604 163.353 141.659 163.251 141.673H163.2Z" fill="#231F20"/>
<path d="M148.18 175.299L121.082 167.709L170.85 158.35L197.786 169.638L148.18 175.299Z" fill="white"/>
<path d="M148.181 175.75C148.144 175.758 148.106 175.758 148.07 175.75L120.972 168.1C120.859 168.1 120.751 168.055 120.672 167.975C120.592 167.896 120.547 167.788 120.547 167.675C120.547 167.562 120.592 167.454 120.672 167.374C120.751 167.295 120.859 167.25 120.972 167.25L170.74 157.9C170.817 157.875 170.9 157.875 170.978 157.9L197.914 169.188C198 169.224 198.072 169.288 198.118 169.37C198.164 169.451 198.182 169.546 198.169 169.638C198.156 169.732 198.113 169.819 198.045 169.886C197.977 169.952 197.889 169.993 197.795 170.004L148.232 175.75H148.181ZM122.953 167.819L148.215 174.9L196.121 169.434L170.799 158.826L122.953 167.819Z" fill="#231F20"/>
<path d="M132.192 147.258C138.142 147.913 143.658 148.338 149.192 150.658C152.354 151.986 155.34 153.699 158.083 155.758C159.481 156.75 160.786 157.865 161.984 159.09C162.936 160.127 162.63 161.139 161.032 160.637C159.174 160.055 157.415 159.195 155.813 158.087C159.642 161.211 163.035 164.833 165.903 168.857C166.226 169.316 166.54 169.97 166.158 170.378C165.775 170.786 164.925 170.378 164.458 169.953L156.051 161.98C158.277 163.9 160.17 166.175 161.653 168.712C161.865 169.078 162.069 169.562 161.848 169.894C161.474 170.514 160.522 170.047 160.012 169.528C157.494 166.986 155.205 164.227 153.17 161.283L157.709 168.083C157.666 168.208 157.599 168.324 157.511 168.423C157.423 168.523 157.316 168.603 157.197 168.661C157.077 168.719 156.948 168.752 156.815 168.76C156.683 168.767 156.55 168.748 156.425 168.704C155.926 168.497 155.493 168.156 155.176 167.718L149.676 161.402L152.923 165.873C153.433 166.57 153.943 167.573 153.357 168.228C152.77 168.882 151.444 168.228 150.696 167.565C147.688 164.819 144.384 162.416 140.845 160.399C139.561 159.643 138.465 158.614 137.045 158.181C135.005 157.552 132.455 157.637 130.33 157.399" fill="white"/>
<path d="M165.75 170.956C165.182 170.892 164.654 170.634 164.254 170.225L161.534 167.675C161.712 167.955 161.891 168.244 162.052 168.525C162.225 168.746 162.334 169.01 162.368 169.289C162.402 169.567 162.361 169.849 162.248 170.106C162.172 170.237 162.066 170.348 161.939 170.431C161.812 170.514 161.668 170.565 161.517 170.582C161.195 170.578 160.878 170.507 160.586 170.374C160.293 170.241 160.031 170.048 159.817 169.808C159.256 169.247 158.712 168.678 158.176 168.108C158.18 168.14 158.18 168.171 158.176 168.202C158.144 168.359 158.079 168.508 157.985 168.638C157.892 168.769 157.771 168.878 157.632 168.958C157.449 169.068 157.245 169.139 157.033 169.167C156.821 169.195 156.606 169.179 156.4 169.12C155.828 168.896 155.333 168.512 154.972 168.015L153.969 166.867C154.094 167.144 154.138 167.451 154.096 167.752C154.054 168.053 153.927 168.336 153.731 168.567C153.609 168.704 153.46 168.815 153.293 168.893C153.126 168.97 152.946 169.013 152.762 169.018C151.874 168.921 151.052 168.504 150.45 167.845C147.471 165.114 144.192 162.73 140.675 160.739C140.241 160.484 139.825 160.195 139.417 159.889C138.674 159.31 137.845 158.851 136.96 158.529C135.478 158.154 133.958 157.949 132.43 157.917C131.699 157.874 130.985 157.832 130.313 157.764C130.211 157.751 130.118 157.698 130.054 157.617C129.99 157.536 129.961 157.433 129.973 157.33C129.979 157.28 129.994 157.231 130.018 157.187C130.043 157.142 130.075 157.103 130.115 157.072C130.154 157.04 130.2 157.017 130.249 157.003C130.297 156.989 130.348 156.985 130.398 156.99C131.061 157.058 131.758 157.101 132.472 157.143C134.064 157.174 135.647 157.388 137.19 157.781C138.148 158.131 139.048 158.624 139.859 159.243C140.25 159.523 140.649 159.795 141.066 160.042C144.631 162.068 147.958 164.485 150.985 167.25C151.445 167.717 152.04 168.029 152.685 168.142C152.765 168.14 152.842 168.121 152.914 168.087C152.985 168.054 153.049 168.006 153.102 167.947C153.561 167.445 152.932 166.468 152.643 166.068L149.396 161.606C149.366 161.567 149.343 161.522 149.33 161.475C149.317 161.427 149.314 161.377 149.32 161.328C149.326 161.279 149.342 161.232 149.367 161.189C149.392 161.146 149.425 161.109 149.464 161.079C149.535 161.009 149.632 160.97 149.732 160.97C149.832 160.97 149.928 161.009 149.999 161.079L155.507 167.394C155.776 167.771 156.144 168.065 156.57 168.244C156.671 168.273 156.776 168.28 156.879 168.267C156.983 168.254 157.083 168.22 157.173 168.168C157.228 168.14 157.274 168.099 157.309 168.049L152.881 161.393C152.823 161.309 152.802 161.205 152.821 161.105C152.84 161.004 152.898 160.915 152.983 160.858C153.068 160.8 153.171 160.779 153.272 160.798C153.372 160.817 153.461 160.875 153.518 160.96C155.544 163.883 157.819 166.624 160.318 169.154C160.595 169.458 160.973 169.651 161.381 169.698C161.415 169.697 161.447 169.687 161.476 169.669C161.504 169.651 161.527 169.626 161.542 169.596C161.636 169.451 161.542 169.179 161.347 168.805C160.324 167.054 159.1 165.428 157.7 163.96L155.805 162.158C155.744 162.086 155.711 161.993 155.713 161.898C155.716 161.802 155.752 161.711 155.817 161.641C155.882 161.571 155.97 161.527 156.065 161.518C156.16 161.508 156.255 161.533 156.332 161.589C157.003 162.167 157.641 162.77 158.253 163.408L164.747 169.57C164.999 169.857 165.346 170.044 165.724 170.097C165.759 170.099 165.793 170.092 165.824 170.077C165.855 170.062 165.882 170.04 165.903 170.012C166.098 169.808 165.903 169.349 165.622 168.975C162.776 164.981 159.409 161.385 155.609 158.282C155.54 158.216 155.497 158.127 155.489 158.031C155.481 157.936 155.509 157.84 155.567 157.764C155.624 157.687 155.708 157.634 155.802 157.616C155.896 157.597 155.994 157.613 156.077 157.662C157.64 158.75 159.36 159.592 161.177 160.161C161.772 160.348 162.086 160.271 162.146 160.161C162.205 160.05 162.146 159.676 161.729 159.234C160.55 158.024 159.261 156.926 157.879 155.953C155.163 153.916 152.205 152.223 149.073 150.913C144.083 148.83 139.094 148.295 133.773 147.725L132.115 147.538C132.065 147.533 132.016 147.518 131.972 147.494C131.927 147.469 131.888 147.437 131.857 147.397C131.825 147.357 131.802 147.312 131.788 147.263C131.774 147.215 131.77 147.164 131.775 147.113C131.781 147.063 131.796 147.014 131.82 146.97C131.845 146.925 131.877 146.886 131.917 146.855C131.956 146.823 132.002 146.8 132.051 146.786C132.099 146.772 132.15 146.768 132.2 146.773L133.9 146.952C139.247 147.53 144.287 148.074 149.379 150.199C152.57 151.521 155.586 153.234 158.355 155.299C159.776 156.31 161.102 157.448 162.316 158.699C162.928 159.362 163.115 160.084 162.809 160.569C162.63 160.841 162.154 161.249 160.956 160.875C160.264 160.664 159.586 160.411 158.924 160.118C161.642 162.661 164.099 165.469 166.26 168.499C166.846 169.349 166.923 170.038 166.489 170.514C166.397 170.616 166.284 170.698 166.158 170.755C166.033 170.812 165.896 170.843 165.758 170.845L165.75 170.956Z" fill="#231F20"/>
<path d="M197.787 169.638L210.188 136.446L159.537 137.449L148.181 175.299L197.787 169.638Z" fill="white"/>
<path d="M148.18 175.75C148.119 175.751 148.057 175.737 148.001 175.711C147.945 175.684 147.896 175.645 147.857 175.597C147.813 175.544 147.782 175.48 147.767 175.412C147.752 175.344 147.754 175.273 147.772 175.206L159.128 137.356C159.156 137.27 159.209 137.195 159.28 137.14C159.352 137.085 159.438 137.054 159.528 137.05L210.179 136.047C210.249 136.046 210.318 136.061 210.38 136.092C210.442 136.123 210.496 136.169 210.536 136.225C210.573 136.282 210.597 136.347 210.606 136.415C210.615 136.482 210.609 136.551 210.587 136.616L198.186 169.766C198.158 169.841 198.11 169.907 198.047 169.957C197.984 170.006 197.909 170.037 197.829 170.047L148.231 175.75H148.18ZM159.859 137.891L148.809 174.832L197.514 169.273L209.601 136.905L159.859 137.891Z" fill="#231F20"/>
<path d="M195.083 169.945C195.083 169.945 208.828 181.105 204 191.339C199.172 201.573 111.35 213.269 111.35 213.269L107.397 199.89C107.397 199.89 176.29 164.7 195.083 169.945Z" fill="#231F20"/>
<path d="M111.35 213.694C111.258 213.693 111.17 213.662 111.096 213.607C111.023 213.552 110.969 213.476 110.942 213.388L106.989 200.009C106.959 199.915 106.964 199.813 107.003 199.723C107.042 199.632 107.113 199.559 107.202 199.516C107.372 199.423 124.652 190.625 144.015 182.567C170.068 171.73 187.28 167.344 195.168 169.537C195.228 169.553 195.283 169.582 195.33 169.622C197.728 171.659 199.859 173.993 201.671 176.566C205.462 182.023 206.38 187.191 204.323 191.526C199.41 201.845 114.996 213.21 111.409 213.686L111.35 213.694ZM107.899 200.094L111.656 212.776C117.793 211.926 198.993 200.723 203.558 191.144C208.046 181.692 195.908 171.177 194.854 170.319C176.987 165.55 113.05 197.544 107.95 200.111L107.899 200.094Z" fill="#231F20"/>
<path d="M102.85 164.819C102.85 164.819 171.045 192.393 187.952 199.669L178.126 214.85C178.126 214.85 115.158 213.617 97.104 197.799C79.05 181.98 80.2485 155.647 102.85 164.819Z" fill="#231F20"/>
<path d="M178.126 215.292C177.973 215.292 162.154 214.961 144.338 212.7C120.368 209.648 104.388 204.752 96.832 198.131C87.38 189.852 80.7585 175.317 85.9605 166.876C87.6605 164.071 92.1995 160.034 103.028 164.42C103.708 164.7 171.419 192.087 188.139 199.27C188.196 199.293 188.247 199.328 188.288 199.374C188.329 199.42 188.36 199.474 188.377 199.533C188.394 199.593 188.398 199.655 188.39 199.717C188.381 199.778 188.359 199.837 188.326 199.89L178.5 215.097C178.46 215.159 178.405 215.21 178.339 215.244C178.273 215.278 178.2 215.295 178.126 215.292ZM94.4775 163.34C90.984 163.34 88.3065 164.683 86.6745 167.318C82.6625 173.838 86.003 187.523 97.3845 197.493C114.563 212.547 173.655 214.332 177.896 214.434L187.331 199.856C169.872 192.376 103.377 165.482 102.697 165.21C100.101 164.07 97.3113 163.435 94.4775 163.34Z" fill="#231F20"/>
<path d="M198.05 156.387C198.123 156.779 198.293 157.147 198.543 157.458L199.869 159.438C199.821 159.234 199.728 159.042 199.597 158.878C199.467 158.713 199.302 158.578 199.113 158.484C198.925 158.39 198.719 158.339 198.509 158.333C198.299 158.328 198.09 158.368 197.897 158.452C197.52 158.656 197.208 158.96 196.993 159.331C196.778 159.701 196.671 160.124 196.681 160.552C196.72 161.407 196.922 162.247 197.276 163.025C198.22 165.473 200.353 169.052 203.439 167.199C205.53 165.941 206.108 161.504 206.405 159.294C206.992 154.942 205.657 149.349 200.064 150.199C200.226 152.342 201.025 154.388 202.359 156.073C201.45 155.189 197.769 153.82 198.05 156.387Z" fill="white"/>
<path d="M201.73 168.1C201.389 168.102 201.049 168.045 200.727 167.93C198.713 167.241 197.455 164.649 196.885 163.161C196.515 162.336 196.304 161.448 196.265 160.543C196.251 160.041 196.38 159.545 196.638 159.113C196.895 158.681 197.27 158.331 197.718 158.104C197.927 158.009 198.153 157.96 198.381 157.959L198.194 157.679C197.904 157.314 197.711 156.881 197.633 156.421C197.566 156.083 197.613 155.733 197.767 155.425C197.921 155.117 198.173 154.869 198.483 154.721C199.355 154.452 200.296 154.522 201.118 154.916C200.302 153.489 199.814 151.898 199.69 150.258C199.685 150.16 199.716 150.064 199.777 149.987C199.838 149.91 199.925 149.858 200.022 149.842C200.873 149.656 201.756 149.679 202.595 149.91C203.435 150.141 204.206 150.573 204.841 151.168C206.839 153.14 207.17 156.693 206.805 159.37C206.473 161.818 205.878 166.213 203.651 167.556C203.075 167.915 202.409 168.104 201.73 168.1ZM198.432 158.75C198.295 158.748 198.16 158.774 198.033 158.826C197.724 159 197.468 159.255 197.294 159.563C197.12 159.872 197.035 160.223 197.047 160.577C197.08 161.383 197.271 162.174 197.608 162.906C198.033 163.994 199.206 166.604 201.008 167.216C201.38 167.335 201.774 167.367 202.16 167.309C202.546 167.252 202.914 167.106 203.235 166.884C205.147 165.737 205.725 161.419 206.006 159.345C206.354 156.795 206.074 153.48 204.306 151.695C203.804 151.223 203.201 150.872 202.542 150.67C201.883 150.468 201.187 150.42 200.506 150.53C200.725 152.465 201.482 154.3 202.691 155.826C202.753 155.902 202.783 156 202.775 156.098C202.767 156.196 202.722 156.287 202.648 156.353C202.576 156.421 202.48 156.459 202.381 156.459C202.281 156.459 202.185 156.421 202.113 156.353C201.543 155.792 199.665 154.993 198.823 155.401C198.636 155.486 198.398 155.681 198.458 156.344C198.532 156.672 198.677 156.98 198.883 157.245L199.597 158.299C199.784 158.421 199.942 158.582 200.06 158.772C200.177 158.961 200.251 159.174 200.277 159.396C200.286 159.483 200.266 159.57 200.22 159.644C200.173 159.718 200.104 159.774 200.022 159.804C199.941 159.833 199.852 159.834 199.77 159.806C199.688 159.778 199.618 159.724 199.571 159.651L199.044 158.869C198.854 158.777 198.643 158.736 198.432 158.75Z" fill="#231F20"/>
<path d="M178.899 196.524C178.846 196.532 178.792 196.532 178.738 196.524C177.25 195.946 142.094 182.338 134.172 177.484C134.074 177.423 134.004 177.325 133.977 177.212C133.949 177.099 133.968 176.98 134.028 176.881C134.058 176.831 134.097 176.788 134.143 176.753C134.19 176.719 134.243 176.695 134.299 176.681C134.356 176.668 134.414 176.666 134.471 176.675C134.528 176.684 134.583 176.705 134.631 176.736C142.485 181.547 178.687 195.564 179.052 195.7C179.162 195.741 179.25 195.825 179.298 195.932C179.345 196.038 179.349 196.16 179.307 196.269C179.272 196.347 179.215 196.413 179.142 196.458C179.069 196.504 178.985 196.527 178.899 196.524Z" fill="white"/>
<path d="M137.895 141.019C145.646 141.019 151.929 135.071 151.929 127.733C151.929 120.396 145.646 114.448 137.895 114.448C130.145 114.448 123.862 120.396 123.862 127.733C123.862 135.071 130.145 141.019 137.895 141.019Z" fill="#231F20"/>
<path d="M137.895 141.436C129.922 141.436 123.445 135.29 123.445 127.734C123.445 120.177 129.931 114.023 137.895 114.023C145.86 114.023 152.345 120.177 152.345 127.734C152.345 135.29 145.868 141.436 137.895 141.436ZM137.895 114.873C130.39 114.873 124.295 120.645 124.295 127.734C124.295 134.823 130.398 140.586 137.895 140.586C145.392 140.586 151.495 134.823 151.495 127.734C151.495 120.645 145.401 114.873 137.895 114.873Z" fill="#231F20"/>
<path d="M130.492 132.052L127.092 130.063V127.436L130.492 125.447C131.625 124.795 132.759 124.132 133.892 123.458V126.637C133.289 127.011 132.685 127.377 132.082 127.725C131.478 128.074 130.883 128.431 130.271 128.813L132.082 129.816L133.892 130.828V134.041L130.492 132.052Z" fill="white"/>
<path d="M134.852 134.882L138.856 119.65L140.947 120.594L136.926 135.8L134.852 134.882Z" fill="white"/>
<path d="M145.35 125.447L148.75 127.436V130.063L145.35 132.052L141.95 134.041V130.828L143.76 129.816L145.571 128.813C144.967 128.431 144.364 128.065 143.76 127.725C143.157 127.385 142.562 127.011 141.95 126.637V123.458L145.35 125.447Z" fill="white"/>
<path d="M108.8 164.7C108.687 164.707 108.576 164.668 108.492 164.593C108.408 164.519 108.356 164.413 108.35 164.3C108.343 164.188 108.381 164.077 108.456 163.992C108.531 163.908 108.636 163.857 108.749 163.85L129.149 161.376L132.388 145.048L106.25 142.838C106.188 142.834 106.127 142.815 106.072 142.785C106.018 142.754 105.971 142.711 105.936 142.659C105.897 142.609 105.871 142.551 105.86 142.489C105.848 142.427 105.85 142.363 105.868 142.302L116.612 102.301C116.641 102.189 116.714 102.092 116.814 102.033C116.915 101.974 117.034 101.958 117.147 101.987C117.26 102.016 117.356 102.089 117.415 102.19C117.474 102.29 117.491 102.41 117.462 102.522L106.845 142.039L132.914 144.198C132.974 144.204 133.032 144.223 133.085 144.252C133.137 144.281 133.183 144.321 133.22 144.368C133.256 144.416 133.281 144.471 133.294 144.53C133.308 144.588 133.308 144.649 133.297 144.708L129.897 161.801C129.879 161.889 129.834 161.968 129.768 162.029C129.703 162.09 129.62 162.129 129.532 162.141L108.8 164.649V164.7Z" fill="#231F20"/>
<path d="M221.136 49.27H178.755V53.656H221.136V49.27Z" fill="#E6E7E8"/>
<path d="M268.447 49.27H226.066V53.656H268.447V49.27Z" fill="#E6E7E8"/>
<path d="M221.136 56.7841H196.257V61.1701H221.136V56.7841Z" fill="#7650E0"/>
<path d="M263.712 56.7841H226.066V61.1701H263.712V56.7841Z" fill="#E6E7E8"/>
<path d="M221.136 64.3064H189.779V68.6924H221.136V64.3064Z" fill="#E6E7E8"/>
<path d="M243.746 64.3064H226.066V68.6924H243.746V64.3064Z" fill="#E6E7E8"/>
<path d="M221.144 71.8206H202.852V76.2066H221.144V71.8206Z" fill="#E6E7E8"/>
<path d="M260.695 71.8206H226.066V76.2066H260.695V71.8206Z" fill="#7650E0"/>
<path d="M221.136 79.343H215.313V83.729H221.136V79.343Z" fill="#7650E0"/>
<path d="M249.33 79.343H226.066V83.729H249.33V79.343Z" fill="#E6E7E8"/>
<path d="M220.405 110.249H181.458V115.272H220.405V110.249Z" fill="#7650E0"/>
<path d="M250.58 110.249H226.661V115.272H250.58V110.249Z" fill="#E6E7E8"/>
<path d="M220.396 118.851H188.776V123.874H220.396V118.851Z" fill="#E6E7E8"/>
<path d="M261.485 118.851H226.661V123.874H261.485V118.851Z" fill="#E6E7E8"/>
<path d="M220.396 127.461H204.586V132.485H220.396V127.461Z" fill="#E6E7E8"/>
<path d="M268.073 127.461H226.661V132.485H268.073V127.461Z" fill="#E6E7E8"/>
<path d="M220.396 136.072H214.472V141.095H220.396V136.072Z" fill="#E6E7E8"/>
<path d="M270.674 136.072H226.661V141.095H270.674V136.072Z" fill="#7650E0"/>
<path d="M256.224 144.674H226.661V149.698H256.224V144.674Z" fill="#E6E7E8"/>
<path d="M241.647 99.352L238.451 98.077V96.377L241.647 95.102L244.842 93.827V95.85C244.264 96.0965 243.695 96.326 243.142 96.547C242.59 96.768 242.003 96.9975 241.442 97.244L243.142 97.89L244.842 98.536V100.593L241.647 99.352Z" fill="#E6E7E8"/>
<path d="M245.786 101.163L249.577 91.4131L251.566 92.0081L247.749 101.8L245.786 101.163Z" fill="#E6E7E8"/>
<path d="M255.697 95.1275C256.76 95.5525 257.831 95.9775 258.893 96.4025V98.1025L255.697 99.3775L252.501 100.653V98.57L254.201 97.924L255.901 97.278C255.323 97.0315 254.754 96.802 254.201 96.581C253.649 96.36 253.062 96.1305 252.501 95.884V93.8525L255.697 95.1275Z" fill="#E6E7E8"/>
<path d="M179.868 38.815C179.867 38.6179 179.911 38.4232 179.996 38.2455C180.07 38.0644 180.183 37.9019 180.327 37.7695C180.469 37.6387 180.633 37.5349 180.812 37.4635C181.003 37.3849 181.208 37.3445 181.415 37.3445C181.611 37.3463 181.805 37.3867 181.985 37.4635C182.16 37.537 182.321 37.6405 182.461 37.7695C182.597 37.9069 182.706 38.0683 182.784 38.2455C182.863 38.4251 182.903 38.619 182.903 38.815C182.903 39.0137 182.863 39.2104 182.784 39.393C182.704 39.5613 182.595 39.7139 182.461 39.8435C182.177 40.1089 181.804 40.2603 181.415 40.2685C181.208 40.2685 181.003 40.2281 180.812 40.1495C180.631 40.0813 180.467 39.9772 180.327 39.8435C180.186 39.7188 180.073 39.5651 179.996 39.393C179.911 39.2123 179.867 39.0148 179.868 38.815ZM179.868 43.796C179.873 43.6014 179.915 43.4095 179.994 43.2315C180.073 43.0534 180.186 42.8928 180.327 42.759C180.466 42.6226 180.631 42.5156 180.812 42.4445C181.004 42.3688 181.209 42.3313 181.415 42.334C181.611 42.3329 181.804 42.3704 181.985 42.4445C182.162 42.5178 182.324 42.6246 182.461 42.759C182.597 42.8933 182.706 43.0518 182.784 43.2265C182.862 43.4076 182.903 43.6029 182.903 43.8002C182.903 43.9976 182.862 44.1929 182.784 44.374C182.706 44.5461 182.597 44.7019 182.461 44.833C182.321 44.9619 182.16 45.0655 181.985 45.139C181.804 45.2131 181.611 45.2506 181.415 45.2495C181.209 45.2522 181.004 45.2147 180.812 45.139C180.633 45.0675 180.469 44.9638 180.327 44.833C180.184 44.7068 180.071 44.5499 179.996 44.374C179.91 44.1936 179.866 43.9959 179.868 43.796Z" fill="#E6E7E8"/>
<path d="M229.5 181.836C229.836 181.854 230.168 181.758 230.443 181.564C230.681 181.386 230.792 181.012 230.792 180.434V177.799C230.791 177.362 230.849 176.928 230.962 176.507C231.068 176.114 231.247 175.745 231.489 175.419C231.736 175.105 232.05 174.849 232.407 174.671C232.832 174.472 233.298 174.376 233.767 174.39H235.679V177.127H235.008C234.855 177.112 234.7 177.139 234.561 177.205C234.422 177.271 234.303 177.373 234.217 177.501C234.071 177.76 233.997 178.054 234.005 178.351V181.037C234.015 181.377 233.954 181.716 233.826 182.032C233.724 182.276 233.58 182.5 233.401 182.695C233.245 182.863 233.057 182.998 232.849 183.094C232.683 183.182 232.501 183.237 232.313 183.256C232.498 183.29 232.678 183.347 232.849 183.426C233.057 183.515 233.245 183.645 233.401 183.808C233.811 184.261 234.027 184.856 234.005 185.466V188.16C233.994 188.458 234.068 188.752 234.217 189.01C234.302 189.14 234.42 189.244 234.56 189.311C234.699 189.379 234.854 189.407 235.008 189.393H235.679V192.13H233.767C233.298 192.143 232.832 192.047 232.407 191.849C232.05 191.67 231.736 191.415 231.489 191.101C231.248 190.774 231.07 190.405 230.962 190.013C230.849 189.589 230.792 189.152 230.792 188.713V186.078C230.821 185.876 230.805 185.671 230.745 185.477C230.685 185.283 230.582 185.105 230.443 184.956C230.168 184.762 229.836 184.666 229.5 184.684V181.836Z" fill="#E6E7E8"/>
<path d="M258.859 184.667C258.52 184.649 258.185 184.745 257.907 184.939C257.77 185.089 257.668 185.267 257.608 185.461C257.548 185.655 257.531 185.859 257.558 186.061V188.696C257.559 189.135 257.501 189.572 257.388 189.996C257.284 190.389 257.105 190.759 256.861 191.084C256.618 191.402 256.304 191.658 255.943 191.832C255.518 192.03 255.052 192.126 254.583 192.113H252.671V189.35H253.351C253.504 189.363 253.657 189.334 253.795 189.267C253.932 189.199 254.049 189.096 254.133 188.968C254.282 188.71 254.356 188.415 254.345 188.118V185.423C254.337 185.086 254.398 184.75 254.524 184.437C254.628 184.19 254.775 183.962 254.957 183.766C255.112 183.604 255.297 183.474 255.501 183.383C255.676 183.305 255.858 183.248 256.045 183.213C255.856 183.193 255.671 183.139 255.501 183.052C255.295 182.956 255.11 182.82 254.957 182.652C254.773 182.46 254.626 182.235 254.524 181.989C254.397 181.673 254.336 181.335 254.345 180.995V178.3C254.353 178.003 254.28 177.709 254.133 177.45C254.048 177.323 253.931 177.222 253.793 177.156C253.656 177.09 253.503 177.063 253.351 177.076H252.671V174.39H254.583C255.052 174.376 255.518 174.472 255.943 174.671C256.304 174.844 256.618 175.101 256.861 175.419C257.107 175.743 257.286 176.113 257.388 176.507C257.502 176.928 257.559 177.362 257.558 177.799V180.434C257.53 180.636 257.547 180.842 257.607 181.038C257.667 181.233 257.77 181.413 257.907 181.564C258.185 181.758 258.52 181.853 258.859 181.836V184.667Z" fill="#E6E7E8"/>
</svg>
